<svg width="48" height="45" viewBox="0 0 48 45" fill="none" xmlns="http://www.w3.org/2000/svg">
<path d="M30.4044 15.5832L30.485 15.7731L30.6905 15.7908L46.6633 17.1682L34.556 27.676L34.4002 27.8113L34.4468 28.0123L38.0676 43.6287L24.3392 35.3428L24.1621 35.2359L23.985 35.3428L10.2579 43.6279L13.9007 28.0128L13.9477 27.8113L13.7914 27.6758L1.66316 17.1691L17.6332 15.8142L17.8392 15.7968L17.9198 15.6065L24.1623 0.877792L30.4044 15.5832ZM23.8193 31.2721V31.4653L23.9847 31.5654L32.7829 36.8864L33.4791 37.3075L33.294 36.5151L31.0074 26.7281L38.5992 20.1424L39.2107 19.612L38.4042 19.542L28.388 18.673L24.4777 9.43467L23.8193 9.56827V31.2721Z" stroke="#A1A1A1" stroke-width="0.685523"/>
</svg>
